<?xml version="1.0" encoding="utf-8"?>
<!-- Generator: Adobe Illustrator 16.0.0, SVG Export Plug-In . SVG Version: 6.00 Build 0)  -->
<!DOCTYPE svg PUBLIC "-//W3C//DTD SVG 1.1//EN" "http://www.w3.org/Graphics/SVG/1.1/DTD/svg11.dtd">
<svg version="1.1" id="Ebene_1" xmlns="http://www.w3.org/2000/svg" xmlns:xlink="http://www.w3.org/1999/xlink" x="0px" y="0px"
	 width="479px" height="346.264px" viewBox="0 0 479 346.264" enable-background="new 0 0 479 346.264" xml:space="preserve">
<polygon fill="#D6DEEA" points="263.707,310.264 206.5,310.264 212.5,213.014 257.707,213.014 "/>
<polygon fill="#B2C0D6" points="257.707,213.014 212.5,213.014 209.309,264.739 260.554,259.183 "/>
<rect x="179.833" y="306.762" fill="#B2C0D6" width="103.334" height="3.502"/>
<path fill="#D6DEEA" d="M93.223,249.764h279.794c5.369,0,9.724-4.353,9.724-9.723V42.486c0-5.37-4.354-9.723-9.724-9.723H93.223
	c-5.37,0-9.723,4.353-9.723,9.723v197.555C83.5,245.411,87.853,249.764,93.223,249.764"/>
<polygon fill="#D6DEEA" points="168.5,264.764 147.5,263.764 157.5,281.764 "/>
<rect x="95.809" y="45.709" fill="#FFFFFF" width="274.683" height="190.923"/>
<line fill="none" stroke="#49A4CC" stroke-miterlimit="10" x1="257.917" y1="209.639" x2="295.91" y2="209.639"/>
<polygon fill="#49A4CC" points="291.486,206.389 291.486,213.014 300.375,209.639 "/>
<line fill="none" stroke="#D6DEEA" stroke-miterlimit="10" x1="93.5" y1="121.497" x2="371.5" y2="121.497"/>
<line fill="none" stroke="#D6DEEA" stroke-miterlimit="10" x1="93.5" y1="107.097" x2="371.5" y2="107.097"/>
<line fill="none" stroke="#D6DEEA" stroke-miterlimit="10" x1="93.5" y1="135.897" x2="371.5" y2="135.897"/>
<line fill="none" stroke="#D6DEEA" stroke-miterlimit="10" x1="93.5" y1="150.297" x2="371.5" y2="150.297"/>
<line fill="none" stroke="#D6DEEA" stroke-miterlimit="10" x1="93.5" y1="164.697" x2="371.5" y2="164.697"/>
<line fill="none" stroke="#D6DEEA" stroke-miterlimit="10" x1="93.5" y1="179.097" x2="371.5" y2="179.097"/>
<path fill="#77B9D7" d="M231.5,192.659c-9.233,0-16.719,7.485-16.719,16.72c0,3.429,1.036,6.615,2.807,9.268l27.274-19.286
	C241.813,195.299,236.971,192.659,231.5,192.659"/>
<path fill="#427BBC" d="M217.588,218.647c2.998,4.489,8.108,7.449,13.912,7.449c9.234,0,16.718-7.484,16.718-16.719
	c0-3.763-1.258-7.224-3.356-10.018L217.588,218.647z"/>
<path fill="#EAEFF4" d="M0,310.264h479c0,0-14,26-72.451,26c-51,0-98.983-18-158.496-18c-59.987,0-81.552,28-158.052,28
	C28.5,346.264,0,310.264,0,310.264"/>
<path fill="#BC406C" d="M276.89,310.264l-1.016-4.937l-3.562,0.187l-9.528,4.187c-0.308,0.11-0.228,0.563,0.098,0.563H276.89z"/>
<path fill="#BC406C" d="M251,305.764l-0.166,4.5h-12.512c-0.367,0-0.459-0.509-0.115-0.638l9.48-4.299L251,305.764z"/>
<path fill="#DF8830" d="M276,194.889c4.256,6.638,8.092,13.517,11.09,20.873c1.002,2.033-0.055,4.481-2.222,5.146
	c-4.427,1.823-8.884,3.178-13.368,4.106l-1.75-5c3.408-1.069,6.562-2.525,9.433-4.412c-1.794-5.108-5.216-9.319-8.683-13.505
	L276,194.889z"/>
<path fill="#427BBC" d="M263.125,233.326c-0.884,23.021,1.934,47.821,6.75,72.938l6.438-0.667
	c-3.606-23.695-3.785-48.396-2.188-72.583L263.125,233.326z"/>
<path fill="#2869AE" d="M274.125,233.014l-11,0.312c-0.135,3.506-0.174,7.057-0.143,10.639l10.845-6.031
	C273.919,236.291,274.017,234.651,274.125,233.014"/>
<path fill="#49A4CC" d="M274.125,233.639l1.5-2.75l-0.791-10.292h-18.209c-6.914,26.6-10.896,54.946-11.457,85l6.185,1.145
	c2.168-25.294,6.905-50.306,14.225-72.675L274.125,233.639z"/>
<path fill="#427BBC" d="M274.833,220.597h-18.209c-0.135,0.517-0.26,1.038-0.392,1.556l18.747,0.354L274.833,220.597z"/>
<polygon fill="#E6AC8F" points="272.667,194.931 272.5,187.764 267.583,187.764 265.833,194.931 "/>
<path fill="#E39780" d="M269.437,187.389l-1.854,0.375l-0.714,2.926c1.899-0.616,3.005-1.926,3.255-3.487L269.437,187.389z"/>
<path fill="#DF8830" d="M262.312,194.931l3.035-2.104c1.982-0.35,6.082-0.316,8.27,0l0.57,2.104H262.312z"/>
<path fill="#E9BC3E" d="M276,194.889c-0.428,8.81-0.272,17.01,0.834,24.208l-2,1.5h-18.209l-1.25-3.314l5.25-22.394
	C265.516,194.182,270.667,194.262,276,194.889"/>
<polygon fill="#DF8830" points="255.375,217.283 261.75,205.431 257.087,209.951 "/>
<path fill="#E6AC8F" d="M238.625,208.222L238,199.389c0,0-3.812,1.083-4.25,3.916c-0.437,2.834,2.187,6.334,2.187,6.334
	L238.625,208.222z"/>
<path fill="#D6DEEA" d="M254.75,206.889c0.043-0.583-4.572-22.75-4.572-22.75l-16.052,2.75l5.5,25.125L254.75,206.889z"/>
<path fill="#E9BC3E" d="M238.494,205.727l-3.994,3.371c2.704,3.615,5.411,6.918,8.126,9.458c1.377,1.604,3.82,1.714,5.338,0.243
	c4.813-3.447,9.432-7.797,13.785-13.368l-1.125-10.542c-5.482,6.943-10.785,12.975-15.526,16.15
	C242.987,209.691,240.762,207.807,238.494,205.727"/>
<path fill="#DF8830" d="M238.494,205.727l-3.994,3.371c0.273,0.365,0.547,0.725,0.82,1.084l4.196-3.538
	C239.176,206.34,238.837,206.041,238.494,205.727"/>
<path fill="#E6AC8F" d="M277.187,180.17c-0.382,2.827-4.687,7.594-4.687,7.594l-2.218-0.008c-2.238,1.01-4.213,1.236-5.699,1.046
	c-1.031-3.333-1.715-9.674-0.209-12.663c1.507-2.988,4.688-3.445,8.251-3C276.875,173.67,277.789,176.218,277.187,180.17"/>
<path fill="#A62E5E" d="M378.417,310.264v-4.583l-2.552-1.169l-11.225,5.043c-0.382,0.143-0.28,0.709,0.129,0.709H378.417z"/>
<path fill="#BC406C" d="M403.5,310.264l0.668-5.082l-3.084,0.332l-10.158,4.185c-0.287,0.135-0.192,0.565,0.125,0.565H403.5z"/>
<path fill="#642D7C" d="M379.333,306.431c12.914-21.934,21.939-45.913,24.834-70.668l-11.755-2.187
	c-1.237,23.972-8.278,48.272-19.269,71.187L379.333,306.431z"/>
<path fill="#5C256D" d="M404.167,235.764l-11.754-2.188c-0.104,2.006-0.263,4.013-0.445,6.021l10.401,7.617
	C403.105,243.418,403.718,239.601,404.167,235.764"/>
<path fill="#7C3A96" d="M392.414,233.576l0.336-10.479l15.75-2.167l4.334,10.834l-2.084,2.166c1.758,25.589-0.668,49.521-5.582,72.5
	l-6.762-0.665c3.499-23.439,4.559-47.02,1.262-70.49L392.414,233.576z"/>
<path fill="none" stroke="#642D7C" stroke-miterlimit="10" d="M404.5,222.764c4.723,28.103,4.191,55.919-1.437,83.459"/>
<polygon fill="#642D7C" points="408.5,220.931 392.75,223.098 392.707,224.435 409.347,223.047 "/>
<path fill="#4FAE89" d="M378,210.097c4.691-2.337,9.409-5.549,14.145-9.332l0.439,8.332c-3.5,3.25-8.766,6.074-13.844,8.168
	L378,210.097z"/>
<path fill="#69BF9B" d="M392.75,223.097l-1.666-1.75c1.144-7.347,1.189-13.529,1.061-20.583l15.523-2.334l1.019,7.964
	c-0.042,4.416,0.702,8.844,1.698,13.275l-1.885,1.261L392.75,223.097z"/>
<path fill="#69BF9B" d="M407.667,198.431c5.373,1.702,10.42,3.703,14.957,6.167l-4.082,5.165c-3.594-1.582-6.951-2.815-9.856-3.368
	L407.667,198.431z"/>
<path fill="#E39780" d="M378,210.097c-5.666-4.562-9.298-7.55-14.383-13.588l-2.263,1.984c3.735,6.476,5.94,10.153,10.209,15.458
	c0,0,2.937,4.494,7.177,3.313C378.497,214.913,378,210.097,378,210.097"/>
<path fill="#E39780" d="M363.617,196.509l-0.342-6.702l-3.482-0.126l-5.534-2.923l-0.509,0.673c0,0,1.002,1.116,2.354,2.563
	c0.324,0.347-1.077,2.934-0.812,3.375c1.453,2.424,3.992,4.291,6.062,5.125C362.592,197.408,363.617,196.509,363.617,196.509"/>
<path fill="#E6AC8F" d="M420,203.451c0,0,7.219,2.642,7.219,5.062c0,2.125-1.851,3.188-1.851,3.188l-13.806,11.062l-2.286-2.538
	l10.099-11.212L420,203.451z"/>
<path fill="#E39780" d="M420,203.451l-0.625,5.562l-0.806,0.896c2.856-0.999,5.714-1.262,8.569-1.842
	C426.359,205.779,420,203.451,420,203.451"/>
<polygon fill="#E6AC8F" points="419.384,226.514 415.437,229.389 411.625,227.389 409.847,226.113 408.5,220.931 409.562,220.139 
	411.562,222.764 414.892,225.514 "/>
<polygon fill="#E6AC8F" points="402.867,199.151 402.166,192.889 397.25,193.577 396.468,200.113 "/>
<path fill="#E39780" d="M402.15,192.936l-4.916,0.688l-0.332,2.777c1.988-0.637,3.843-1.938,5.268-3.294L402.15,192.936z"/>
<path fill="#63316F" d="M396.048,178.312c-1.028,1.057-1.654,2.499-1.726,3.973c-0.069,1.476,0.416,2.969,1.341,4.119
	c0.809-1.302,1.617-2.604,2.426-3.907c0.59-0.949,1.186-1.911,1.532-2.973"/>
<path fill="#E6AC8F" d="M399.312,178.201c0,0-4.385,1.54-5.108,7.457c-0.435,3.539,0.06,6.073,0.422,7.334
	c0.149,0.524,0.655,0.859,1.196,0.784l6.344-0.887c0,0,1.021-4.563,4.146-9.877C404.75,179.951,399.312,178.201,399.312,178.201"/>
<path fill="#63316F" d="M394.566,175.889c0.041-1.897,0.801-3.865,2.402-4.969c2.706-1.864,5.54,1.063,5.898,3.562
	c0.131,0.904,0.08,2.251,0.877,2.697c1.156,0.647,2.317-0.609,3.42-0.764c0.553-0.078,1.178,0.095,1.482,0.562
	c0.219,0.336,0.238,0.77,0.146,1.158c-0.142,0.588-0.494,1.093-0.804,1.601c-0.119,0.197-0.236,0.408-0.248,0.639
	c-0.035,0.652,0.676,1.028,1.106,1.392c0.924,0.779,1.204,2.084,0.866,3.218c-0.34,1.137-3.471,1.648-4.846,3.111
	c-2.059,2.191-2.697,4.876-2.701,4.792c-0.104-2.125-0.248-6.708,1.085-9.083c-3.078-0.042-5.212-1.614-6.783-3.509
	C395.5,179.128,394.531,177.575,394.566,175.889"/>
<polygon fill="#E9BC3E" points="405.927,198.692 403.687,196.501 398.935,199.743 395.625,197.389 394.109,200.468 "/>
<path fill="#E6AC8F" d="M85.954,229.264l-8.029,0.521L70,228.931c-1.301,12.07-3.805,23.906-7.75,35.458
	c-6.268,9.767-11.998,22.021-17.417,35.708l1.834,1.334c7.685-12.938,15.476-24.555,23.429-34.167
	c3.568-8.372,6.343-16.888,8.402-25.534c1.801,8.204,3.217,16.434,4.002,24.701c-0.475,12,0.521,25.109,2.667,38.666l2.166,0.167
	c0.043-14.312,0.798-27.458,2.334-38.833C89.248,251.531,87.674,237.937,85.954,229.264"/>
<path fill="#E39780" d="M85.954,229.264l-8.029,0.521L70,228.931c-1.301,12.07-3.805,23.906-7.75,35.458
	c-1.848,2.879-3.648,5.98-5.408,9.265l10.307-2.729c0.98-1.25,1.962-2.471,2.947-3.661c3.568-8.372,6.343-16.888,8.402-25.534
	c1.801,8.204,3.217,16.434,4.002,24.701c-0.006,0.143-0.006,0.29-0.011,0.434l7.13-1.887
	C89.142,250.652,87.617,237.653,85.954,229.264"/>
<path fill="#BC406C" d="M82.634,181.42c-0.129-1.274-1.235-2.45-2.052-3.51c-1.096-1.424-2.574-2.665-4.384-3.316
	c-2.003-0.72-4.353-0.653-6.301,0.177c-1.949,0.829-3.465,2.41-4.066,4.241c-1.069,3.255,0.699,6.666,0.89,10.05
	c0.032,0.578,0.014,1.179-0.258,1.706c-0.441,0.859-1.461,1.365-2.46,1.707c-1.452,0.497-3.004,0.777-4.391,1.402
	c-1.388,0.624-2.647,1.708-2.82,3.071c-0.191,1.51,0.953,2.86,1.894,4.134c0.719,0.974,1.636,1.713,2.172,2.775
	c0.299,0.595,0.171,1.25-0.206,1.875c-0.75,1.242-2.743,1.099-4.013,1.969c-1.337,0.917-2.289,3.219-2.263,4.875
	c0.028,1.746,1.566,3.655,2.79,5.026c3.712,4.158,10.431,5.755,16.271,4.511c5.839-1.244,12.801-3.213,15.815-7.787
	c1.262-1.914,2.1-5.49,2.401-7.688c0.301-2.197-1.476-6.312-2.812-8.188c-1.999-2.806-6.541-3.163-7.079-6.441
	c-0.198-1.211,0.147-2.257,0.383-3.465c0.249-1.281,0.992-2.319-1.26-3.906c0.395-0.478,0.728-0.729,1.132-1.312
	C82.565,182.607,82.703,182.11,82.634,181.42"/>
<path fill="#E39780" d="M85.833,195.097c5.482-1.021,10.752-2.108,14.167-3.771c3.455-4.324,6.277-8.672,8.322-13.052l4.103-2.354
	c-2.613,7.069-5.47,13.732-8.738,19.719c-4.851,2.233-10.318,3.969-16.078,5.466L85.833,195.097z"/>
<path fill="#2BA369" d="M85.833,195.097c2.511-0.521,4.948-1.052,7.542-1.582l-0.5,7.687c-2.361,0.132-4.842,0.196-6.375,0
	L85.833,195.097z"/>
<path fill="#49BA7E" d="M90.75,261.389c-12.58,3.08-25.58,2.705-34.92-3.955c2.611-9.839,7.228-20.361,13.42-31.42l4.42-6.08
	c-0.217-5.559-2.787-13.419-5.42-21.34c5.567-2.183,11.402-3.437,17.58-3.5c0.607,4.124,1.668,7.941,3.35,11.34
	c-1.639,3.183-2.68,7.956-3.43,13.5C88.125,234.952,90.443,249.119,90.75,261.389"/>
<polygon fill="#E6AC8F" points="73.714,190.284 77.303,189.731 81.336,197.106 74.708,198.201 "/>
<path fill="#E39780" d="M77.303,189.731l-3.609,0.553l0.493,3.852c1.002-0.949,2.403-1.703,4.225-2.229L77.303,189.731z"/>
<path fill="#E6AC8F" d="M79.717,181.843c0.98,4.718,1.316,9.979-2.601,10.501c-3.917,0.52-6.757-3.525-7.491-8.955
	c-0.362-2.68,0.64-5.409,4.089-6C77,176.826,79.221,179.452,79.717,181.843"/>
<path fill="#BC406C" d="M68.383,179.834c2.769,1.254,5.701,2.145,8.7,2.642c1.79,0.297,3.75,0.423,5.3-0.521
	c1.044-0.638,1.771-1.694,2.28-2.807c0.104-0.227,0.202-0.471,0.17-0.718c-0.047-0.354-0.343-0.617-0.628-0.831
	c-3.129-2.354-7.439-3.043-11.145-1.781"/>
<path fill="#E6AC8F" d="M81.409,195.312v10.255L72.931,197C75.755,196.199,78.58,195.608,81.409,195.312"/>
<line fill="none" stroke="#49A4CC" stroke-linecap="round" stroke-miterlimit="10" x1="106.5" y1="178.014" x2="139" y2="147.764"/>
<polygon fill="#E39780" points="107.936,179.012 109.48,176.065 109.735,169.008 118.75,167.639 113.294,172.264 112.424,175.922 
	110.158,179.843 "/>
<polygon fill="#642D7C" points="87.365,304.953 91.657,308.804 94.312,310.264 90.839,310.264 87.077,308.737 87.077,310.264 
	85.351,310.264 84.687,306.348 85.063,304.776 "/>
<polygon fill="#642D7C" points="46.899,301.763 43.997,306.905 43.254,310.263 42.239,306.554 43.528,302.57 41.614,302.961 
	41.146,301.242 44.608,300.098 "/>
<path fill="#E6AC8F" d="M68.25,198.597l-11,10.083c-4.205,5.167-7.77,10.62-10.75,16.334l1.917,1.916
	c3.768-5.264,7.616-9.915,11.583-13.666l9.833-8.167L68.25,198.597z"/>
<path fill="#49BA7E" d="M68.25,198.597c-2.963,2.586-6.02,5.224-9.208,7.636l4.625,5.782c2.416-2.11,4.658-4.63,6.75-7.5
	L68.25,198.597z"/>
<polygon fill="#E6AC8F" points="48.417,226.931 43.167,231.681 42.417,231.348 44.5,228.431 41.167,227.764 37.5,226.931 
	38.25,225.181 41.167,224.848 46.5,225.014 "/>
<polyline fill="none" stroke="#BC406C" stroke-width="3" stroke-linejoin="round" stroke-miterlimit="10" points="95.778,167.954 
	139.833,121.097 189.5,179.264 234.5,106.597 251.833,136.097 265.167,121.431 299.833,178.604 318.833,149.931 333.5,165.177 
	353.167,135.597 379.5,159.931 "/>
<path fill="#A00C47" d="M143.833,121.097c0,2.209-1.791,4-4,4s-4-1.791-4-4s1.791-4,4-4S143.833,118.888,143.833,121.097"/>
<path fill="#A00C47" d="M193.167,179.264c0,2.209-1.791,4-4,4s-4-1.791-4-4s1.791-4,4-4S193.167,177.055,193.167,179.264"/>
<path fill="#A00C47" d="M238.5,106.597c0,2.209-1.791,4-4,4s-4-1.791-4-4s1.791-4,4-4S238.5,104.388,238.5,106.597"/>
<path fill="#A00C47" d="M255.833,136.097c0,2.209-1.791,4-4,4s-4-1.791-4-4s1.791-4,4-4S255.833,133.888,255.833,136.097"/>
<path fill="#A00C47" d="M269.167,121.431c0,2.209-1.791,4-4,4s-4-1.791-4-4s1.791-4,4-4S269.167,119.222,269.167,121.431"/>
<path fill="#A00C47" d="M303.833,178.931c0,2.209-1.791,4-4,4s-4-1.791-4-4s1.791-4,4-4S303.833,176.722,303.833,178.931"/>
<path fill="#A00C47" d="M322.833,150.764c0,2.209-1.791,4-4,4s-4-1.791-4-4s1.791-4,4-4S322.833,148.555,322.833,150.764"/>
<path fill="#A00C47" d="M337.833,164.931c0,2.209-1.791,4-4,4s-4-1.791-4-4s1.791-4,4-4S337.833,162.722,337.833,164.931"/>
<path fill="#A00C47" d="M356.955,136.097c0,2.209-1.791,4-4,4s-4-1.791-4-4s1.791-4,4-4S356.955,133.888,356.955,136.097"/>
<path fill="#49A4CC" d="M307.833,208.168c0,8.702,6.949,15.765,15.601,15.979v-31.959
	C314.783,192.403,307.833,199.466,307.833,208.168"/>
<path fill="#77B9D7" d="M323.833,192.168c-0.136,0-0.267,0.017-0.399,0.021v16.035l14.005-8.445
	C334.621,195.218,329.589,192.168,323.833,192.168"/>
<path fill="#427BBC" d="M323.433,208.225v15.923c0.135,0.004,0.266,0.021,0.399,0.021c8.837,0,16-7.164,16-16
	c0-3.08-0.886-5.948-2.394-8.389L323.433,208.225z"/>
<path fill="#49A4CC" d="M139.167,193.784c-8.745,0-15.834,7.09-15.834,15.833c0,3.04,0.872,5.87,2.357,8.281l13.081-8.135
	l0.562-15.971C139.277,193.793,139.223,193.784,139.167,193.784"/>
<path fill="#427BBC" d="M139.333,193.793l-0.562,15.971l10.603-12.221C146.657,195.243,143.164,193.833,139.333,193.793"/>
<path fill="#77B9D7" d="M154.878,207.736c-0.484-4.08-2.526-7.672-5.504-10.193l-10.603,12.221L154.878,207.736z"/>
<path fill="#5EAED2" d="M154.878,207.736l-16.107,2.027l-13.08,8.135c2.787,4.526,7.771,7.552,13.476,7.552
	c8.744,0,15.833-7.089,15.833-15.833C155,208.98,154.951,208.354,154.878,207.736"/>
<path fill="#E9BC3E" d="M276.767,51.496c0,19.202-15.564,34.768-34.768,34.768c-19.202,0-34.767-15.565-34.767-34.768
	S222.797,16.728,242,16.728C261.203,16.728,276.767,32.294,276.767,51.496"/>
<g>
	<defs>
		<path id="SVGID_1_" d="M207.233,51.496c0,19.201,15.565,34.768,34.767,34.768c19.202,0,34.768-15.566,34.768-34.768
			c0-19.202-15.565-34.769-34.768-34.769C222.798,16.728,207.233,32.294,207.233,51.496"/>
	</defs>
	<clipPath id="SVGID_2_">
		<use xlink:href="#SVGID_1_"  overflow="visible"/>
	</clipPath>
	<path clip-path="url(#SVGID_2_)" fill="#DF8830" d="M293.578,51.695h-3.646c-0.441,0-0.845-0.249-1.041-0.644l-5.221-10.438
		c-0.257-0.515-0.781-0.839-1.355-0.839h-4.278c-0.412,0-0.745,0.334-0.745,0.744c0,0.412-0.334,0.745-0.744,0.745
		c-0.412,0-0.746-0.333-0.746-0.745c0-0.41-0.334-0.744-0.744-0.744h-1.49c-0.412,0-0.745-0.334-0.745-0.745v-1.49
		c0-0.412-0.334-0.745-0.746-0.745h-3.254c-0.31,0-0.616,0.072-0.892,0.21l-2.194,1.097c-0.241,0.12-0.505,0.184-0.774,0.184h-2.086
		c-0.305,0-0.593,0.144-0.777,0.389l-4.158,5.544c-0.014,0.019-0.021,0.04-0.021,0.062v7.107c0,0.197,0.078,0.388,0.218,0.527
		l3.928,3.926c0.199,0.2,0.494,0.27,0.762,0.181l3.861-1.287c0.113-0.038,0.234-0.058,0.354-0.058h2.054
		c0.41,0,0.744,0.333,0.744,0.745c0,0.411,0.334,0.745,0.745,0.745s0.745,0.334,0.745,0.745v1.926c0,0.198,0.078,0.388,0.219,0.527
		l2.543,2.544c0.141,0.14,0.219,0.33,0.219,0.526v2.363c0,0.198-0.078,0.387-0.219,0.527l-1.054,1.054
		c-0.139,0.139-0.217,0.329-0.217,0.527v1.077c0,0.068,0.009,0.138,0.028,0.205l2.42,8.473c0.285,0.994,1.365,1.523,2.324,1.14
		l5.256-2.102c0.242-0.098,0.401-0.333,0.401-0.595v-0.748c0-0.197,0.079-0.388,0.22-0.526l1.054-1.054
		c0.139-0.141,0.217-0.329,0.217-0.527v-2.211c0-0.283,0.16-0.54,0.413-0.667l2.156-1.078c0.252-0.126,0.412-0.384,0.412-0.667
		v-6.729c0-0.168,0.058-0.333,0.162-0.466l5.635-7.043c0.105-0.131,0.164-0.296,0.164-0.465V51.8
		C293.683,51.742,293.636,51.695,293.578,51.695 M345.441,21.494l-1.043-1.042c-0.033-0.033-0.075-0.055-0.119-0.064l-7.335-1.467
		c-0.032-0.006-0.063-0.009-0.095-0.009h-10.383l-3.933-1.311c-0.33-0.11-0.694-0.024-0.94,0.223l-0.666,0.665
		c-0.271,0.271-0.638,0.423-1.021,0.423h-1.784c-0.383,0-0.75-0.152-1.021-0.423l-0.797-0.798c-0.172-0.173-0.406-0.27-0.65-0.27
		h-5.023c-0.355,0-0.697-0.142-0.951-0.394l-0.971-0.973c-0.08-0.08-0.188-0.124-0.302-0.124h-5.655
		c-0.084,0-0.166,0.025-0.236,0.071l-4.172,2.782c-0.119,0.08-0.19,0.212-0.19,0.354v0.836c0,0.235-0.191,0.427-0.427,0.427h-0.801
		c-0.16,0-0.309-0.091-0.381-0.235l-1.255-2.51c-0.071-0.145-0.219-0.235-0.381-0.235h-0.538c-0.316,0-0.521,0.333-0.381,0.616
		l0.875,1.748c0.141,0.283-0.064,0.616-0.381,0.616h-6.661c-0.067,0-0.132,0.015-0.19,0.045l-5.365,2.682
		c-0.232,0.116-0.506-0.053-0.506-0.312v-0.574c0-0.193,0.156-0.351,0.351-0.351h0.786c0.226,0,0.443-0.09,0.603-0.25l0.433-0.432
		c0.371-0.371,0.223-1.003-0.276-1.169l-3.276-1.093c-0.072-0.024-0.147-0.036-0.224-0.036h-4.121c-0.153,0-0.301,0.049-0.423,0.141
		l-5.488,4.115c-0.179,0.135-0.285,0.346-0.285,0.571v0.62c0,0.307,0.196,0.579,0.487,0.676l0.394,0.131
		c0.364,0.121,0.609,0.461,0.609,0.845v1.292c0,0.337-0.189,0.646-0.492,0.796l-4.839,2.419c-0.31,0.155-0.377,0.568-0.132,0.813
		l0.443,0.443c0.304,0.303,0.304,0.795,0,1.099l-0.594,0.594c-0.223,0.223-0.522,0.348-0.838,0.348h-1.736
		c-0.416,0-0.754,0.336-0.754,0.752v1.475c0,0.416,0.338,0.753,0.754,0.753h1.629c0.384,0,0.75-0.152,1.021-0.423l2.228-2.229
		c0.213-0.211,0.498-0.328,0.798-0.328h2.096c0.231,0,0.417-0.188,0.417-0.417v-0.068c0-0.371,0.45-0.557,0.711-0.294l2.141,2.139
		c0.082,0.083,0.129,0.195,0.129,0.312v0.243c0,0.393,0.475,0.59,0.754,0.312l0.425-0.425c0.172-0.173,0.172-0.452,0-0.624
		l-2.127-2.127c-0.2-0.2-0.06-0.542,0.224-0.542h0.594c0.084,0,0.164,0.034,0.225,0.093l2.721,2.722
		c0.107,0.106,0.166,0.25,0.166,0.4v0.691c0,0.312,0.253,0.564,0.564,0.564h0.361c0.312,0,0.564-0.253,0.564-0.564v-0.361
		c0-0.312,0.252-0.565,0.564-0.565h0.36c0.312,0,0.565,0.253,0.565,0.565v0.361c0,0.312,0.253,0.564,0.564,0.564h3.186
		c0.397,0,0.72,0.322,0.72,0.72v2.261l5.584,9.771c0.219,0.384,0.679,0.56,1.099,0.42l3.541-1.181
		c0.137-0.045,0.262-0.122,0.362-0.225l2.208-2.208c0.341-0.341,0.341-0.894,0-1.234l-0.702-0.702
		c-0.108-0.109-0.257-0.17-0.411-0.17h-2.38c-0.22,0-0.422-0.125-0.521-0.322l-0.907-1.816c-0.194-0.387,0.087-0.843,0.521-0.843
		h0.308c0.153,0,0.301,0.062,0.411,0.171l1.252,1.254c0.045,0.044,0.096,0.08,0.152,0.108l2.655,1.328
		c0.158,0.078,0.332,0.12,0.509,0.12h2.471c0.154,0,0.303,0.061,0.412,0.17l2.278,2.28c0.293,0.293,0.769,0.293,1.062,0
		c0.453-0.455,1.225-0.297,1.464,0.3l2.159,5.4c0.15,0.375,0.634,0.474,0.918,0.188l0.803-0.802
		c0.055-0.056,0.086-0.131,0.086-0.209v-1.056c0-0.199,0.08-0.392,0.221-0.533l3.866-3.866c0.229-0.229,0.579-0.286,0.869-0.142
		l1.883,0.942c0.375,0.188,0.612,0.571,0.612,0.99v0.348c0,0.293,0.117,0.575,0.324,0.782l0.842,0.842
		c0.208,0.208,0.324,0.489,0.324,0.783v2.334c0,0.122,0.035,0.242,0.104,0.343l2.693,4.04c0.115,0.172,0.307,0.275,0.514,0.275
		h0.004c0.494,0,0.788-0.552,0.516-0.961l-2.235-3.354c-0.069-0.101-0.104-0.221-0.104-0.343v-2.228c0-0.209,0.252-0.313,0.4-0.166
		l2.143,2.144c0.241,0.242,0.633,0.242,0.875,0l0.871-0.872c0.115-0.115,0.182-0.273,0.182-0.437v-0.979
		c0-0.164-0.066-0.321-0.182-0.437l-0.953-0.954c-0.228-0.228-0.355-0.536-0.355-0.857v-0.394c0-0.328,0.266-0.595,0.594-0.595
		h0.799c0.065,0,0.129-0.01,0.189-0.03l4.006-1.335c0.238-0.08,0.436-0.251,0.547-0.476l1.046-2.092
		c0.167-0.333,0.142-0.728-0.063-1.038l-2.534-3.801c-0.074-0.11-0.113-0.24-0.113-0.373v-1.008c0-0.179-0.071-0.35-0.196-0.476
		l-1.098-1.096c-0.126-0.127-0.195-0.298-0.195-0.476v-0.124c0-0.5,0.524-0.825,0.973-0.602l1.807,0.903
		c0.13,0.064,0.236,0.171,0.301,0.301l1.204,2.408c0.114,0.228,0.347,0.372,0.601,0.372h0.404c0.37,0,0.672-0.301,0.672-0.672v-0.54
		c0-0.179-0.072-0.35-0.197-0.476l-1.098-1.096c-0.125-0.127-0.195-0.298-0.195-0.476v-0.54c0-0.371,0.301-0.671,0.672-0.671h0.54
		c0.177,0,0.348-0.071,0.474-0.198l0.956-0.955c0.216-0.216,0.338-0.509,0.338-0.815v-0.741c0-0.179-0.042-0.354-0.122-0.515
		l-1.182-2.366c-0.115-0.227-0.348-0.371-0.602-0.371h-1.894c-0.371,0-0.671-0.301-0.671-0.672v-1.637
		c0-0.371,0.3-0.672,0.671-0.672h3.601c0.127,0,0.248-0.05,0.34-0.14l1.207-1.209c0.092-0.091,0.213-0.142,0.34-0.142h0.812
		c0.265,0,0.479,0.215,0.479,0.481v2.301c0,0.127,0.052,0.249,0.141,0.339l2.7,2.699c0.089,0.09,0.212,0.141,0.339,0.141h0.811
		c0.267,0,0.48-0.215,0.48-0.479v-2.204c0-0.182-0.102-0.348-0.266-0.43l-1.553-0.776c-0.398-0.199-0.334-0.787,0.098-0.896
		l4.091-1.022c0.21-0.052,0.241-0.337,0.047-0.435l-1.534-0.767c-0.219-0.11-0.141-0.442,0.105-0.442h2.921
		C345.484,21.892,345.586,21.641,345.441,21.494 M277.726,24.872c-0.239,0-0.436,0.196-0.436,0.437v0.617
		c0,0.241-0.195,0.438-0.436,0.438h-0.873c-0.117,0-0.227,0.045-0.309,0.128l-1.234,1.233c-0.082,0.082-0.194,0.128-0.309,0.128
		h-0.873c-0.242,0-0.437-0.195-0.437-0.437v-0.944c0-0.298,0.292-0.508,0.573-0.414l0.66,0.221c0.156,0.052,0.33,0.011,0.446-0.106
		l0.991-0.991c0.17-0.17,0.17-0.446,0-0.616l-0.753-0.753c-0.211-0.212-0.154-0.566,0.112-0.7l1.808-0.903
		c0.29-0.145,0.632,0.066,0.632,0.39v0.604c0,0.116,0.046,0.227,0.127,0.309l0.618,0.617
		C278.31,24.402,278.116,24.872,277.726,24.872 M286.974,34L282,35.244c-0.147,0.037-0.306-0.007-0.415-0.115l-1.007-1.007
		c-0.17-0.17-0.17-0.447,0-0.617l1.054-1.054c0.082-0.082,0.193-0.128,0.31-0.128h1.129c0.116,0,0.226-0.046,0.308-0.128
		l1.235-1.234c0.082-0.082,0.192-0.128,0.308-0.128h0.873c0.241,0,0.438,0.196,0.438,0.438v0.872c0,0.115,0.046,0.227,0.128,0.309
		l0.817,0.816C287.416,33.508,287.302,33.918,286.974,34 M293.683,36.357c0,0.24-0.195,0.437-0.438,0.437h-0.784
		c-0.165,0-0.315-0.094-0.39-0.241l-1.324-2.646c-0.029-0.062-0.046-0.128-0.046-0.196v-1.206c0-0.116,0.046-0.227,0.128-0.309
		l1.055-1.054c0.17-0.171,0.445-0.171,0.616,0l0.437,0.437c0.274,0.274,0.08,0.745-0.309,0.745c-0.24,0-0.436,0.195-0.436,0.437
		v0.873c0,0.116,0.046,0.227,0.128,0.309l1.233,1.234c0.082,0.082,0.129,0.193,0.129,0.309V36.357z M265.907,29.343h0.729
		c0.144,0,0.279-0.057,0.381-0.156l0.721-0.722c0.225-0.226,0.064-0.612-0.254-0.612h-0.088c-0.297,0-0.536-0.24-0.536-0.537V25.41
		c0-0.297-0.241-0.538-0.537-0.538h-0.416c-0.296,0-0.538,0.241-0.538,0.538v3.395C265.369,29.102,265.611,29.343,265.907,29.343
		 M263.499,26.743l-0.729,0.729c-0.209,0.21-0.209,0.551,0,0.761l0.729,0.729c0.21,0.21,0.55,0.21,0.761,0l0.73-0.729
		c0.209-0.21,0.209-0.551,0-0.761l-0.73-0.729C264.048,26.533,263.708,26.533,263.499,26.743 M258.115,20.108l2.688-4.031
		c0.062-0.095,0.15-0.172,0.254-0.225l2.457-1.229c0.225-0.112,0.365-0.341,0.365-0.591v-0.421c0-0.365-0.296-0.661-0.66-0.661
		h-3.703c-0.069,0-0.142,0.012-0.209,0.034l-4.267,1.422c-0.067,0.022-0.137,0.034-0.209,0.034h-5.772
		c-0.053,0-0.107,0.007-0.159,0.02l-5.382,1.345c-0.293,0.074-0.5,0.338-0.5,0.642v0.313c0,0.365,0.295,0.661,0.66,0.661h3.149
		c0.365,0,0.661,0.296,0.661,0.66v0.556c0,0.177-0.07,0.344-0.194,0.467l-1.103,1.104c-0.124,0.123-0.194,0.292-0.194,0.467v2.434
		c0,0.175,0.07,0.343,0.194,0.467l1.103,1.103c0.124,0.124,0.292,0.193,0.468,0.193h0.809c0.25,0,0.479-0.141,0.59-0.365l1.125-2.25
		c0.113-0.224,0.341-0.365,0.591-0.365h0.927c0.103,0,0.203-0.023,0.295-0.068l2.701-1.352c0.092-0.046,0.192-0.069,0.295-0.069
		h2.471C257.786,20.402,257.992,20.292,258.115,20.108 M261.636,20.653l-3.326,1.108c-0.234,0.078-0.392,0.296-0.392,0.542v0.508
		c0,0.314,0.257,0.57,0.571,0.57h2.172c0.152,0,0.297-0.06,0.405-0.167l1.155-1.155c0.106-0.107,0.166-0.253,0.166-0.403v-0.461
		C262.388,20.805,262.007,20.529,261.636,20.653 M222.155,52.637v-3.374c0-0.303-0.246-0.548-0.548-0.548h-1.109
		c-0.488,0-0.732-0.591-0.387-0.936l0.393-0.394c0.103-0.103,0.161-0.243,0.161-0.388v-0.715c0-0.304-0.246-0.548-0.549-0.548
		h-0.714c-0.146,0-0.286,0.058-0.388,0.16l-1.169,1.169c-0.103,0.103-0.242,0.16-0.388,0.16h-2.526c-0.145,0-0.284-0.058-0.388-0.16
		l-0.941-0.941c-0.214-0.215-0.214-0.562,0-0.776l3.922-3.922c0.102-0.103,0.242-0.161,0.387-0.161h5.186
		c0.303,0,0.548,0.246,0.548,0.55v1.883c0,0.303,0.246,0.549,0.549,0.549h0.393c0.303,0,0.548-0.246,0.548-0.549v-3.665
		c0-0.163,0.072-0.317,0.197-0.421l8.592-7.16c0.099-0.082,0.223-0.127,0.351-0.127h2.233c0.303,0,0.549-0.245,0.549-0.548V31.06
		c0-0.145-0.059-0.284-0.161-0.387l-0.394-0.394c-0.345-0.346-0.1-0.937,0.389-0.937h3.016c0.085,0,0.169-0.02,0.246-0.058
		l2.562-1.281c0.186-0.093,0.303-0.283,0.303-0.49v-0.603c0-0.303-0.246-0.548-0.549-0.548h-1.884c-0.303,0-0.549-0.246-0.549-0.549
		v-0.394c0-0.303-0.245-0.549-0.547-0.549h-3.374c-0.303,0-0.548-0.245-0.548-0.548v-0.394c0-0.303-0.246-0.549-0.549-0.549h-0.667
		c-0.173,0-0.336,0.082-0.44,0.22l-3.318,4.426c-0.316,0.421-0.987,0.197-0.987-0.329v-0.996c0-0.208-0.117-0.398-0.303-0.491
		l-1.997-0.998c-0.335-0.168-0.407-0.614-0.143-0.879l2.283-2.281c0.102-0.103,0.242-0.161,0.387-0.161h1.174
		c0.059,0,0.117-0.009,0.173-0.027l4.012-1.337c0.223-0.075,0.375-0.284,0.375-0.521V19.46c0-0.303-0.246-0.548-0.549-0.548h-6.702
		c-0.133,0-0.265,0.021-0.39,0.062l-4.065,1.355c-0.138,0.046-0.289,0.036-0.419-0.029l-2.661-1.331
		c-0.077-0.038-0.161-0.058-0.246-0.058h-7.093c-0.146,0-0.286-0.058-0.389-0.161l-1.169-1.169c-0.103-0.103-0.242-0.16-0.388-0.16
		h-5.506c-0.145,0-0.285,0.058-0.387,0.16l-2.659,2.659c-0.103,0.103-0.162,0.243-0.162,0.388v0.715
		c0,0.304-0.245,0.548-0.547,0.548h-3.583c-0.208,0-0.398,0.118-0.491,0.304l-1.281,2.562c-0.038,0.076-0.057,0.16-0.057,0.245
		v1.134c0,0.146-0.058,0.284-0.162,0.388l-0.392,0.394c-0.346,0.345-0.102,0.936,0.388,0.936c0.108,0,0.213-0.031,0.303-0.092
		l4.254-2.836c0.052-0.035,0.109-0.06,0.171-0.076l5.567-1.391c0.187-0.047,0.385,0.008,0.521,0.144l1.031,1.031
		c0.147,0.147,0.198,0.364,0.132,0.562l-1.275,3.826c-0.066,0.198-0.015,0.416,0.132,0.562l0.863,0.862
		c0.214,0.214,0.214,0.562,0,0.775l-3.922,3.922c-0.103,0.104-0.161,0.242-0.161,0.389v2.525c0,0.146,0.058,0.285,0.161,0.389
		l1.169,1.168c0.102,0.103,0.16,0.243,0.16,0.388v2.624c0,0.085,0.02,0.169,0.059,0.245l1.091,2.184
		c0.167,0.335,0.614,0.407,0.878,0.144l0.565-0.565c0.214-0.214,0.214-0.561,0-0.774l-0.942-0.942
		c-0.103-0.104-0.161-0.242-0.161-0.388v-2.204c0-0.303,0.246-0.549,0.549-0.549h0.394c0.302,0,0.547,0.246,0.547,0.549v2.342
		c0,0.059,0.01,0.118,0.029,0.174l1.402,4.207c0.039,0.116,0.115,0.215,0.216,0.283l3.94,2.627c0.218,0.145,0.507,0.116,0.692-0.069
		l0.785-0.784c0.214-0.214,0.561-0.214,0.775,0l1.103,1.103l1.49,1.49l1.329,1.33c0.103,0.103,0.242,0.16,0.388,0.16h0.715
		C221.909,53.186,222.155,52.94,222.155,52.637 M223.786,44.385c-0.09-0.09-0.213-0.14-0.34-0.14h-0.81
		c-0.266,0-0.481,0.215-0.481,0.479v0.529c0,0.267,0.215,0.481,0.481,0.481h0.81c0.127,0,0.25,0.05,0.34,0.141l1.208,1.208
		c0.09,0.09,0.213,0.141,0.34,0.141h0.131c0.428,0,0.643-0.518,0.34-0.82l-0.67-0.669L223.786,44.385z M227.433,47.225
		c-0.298,0-0.447,0.36-0.236,0.57l0.821,0.822c0.062,0.062,0.147,0.098,0.236,0.098h1.213c0.089,0,0.174-0.035,0.236-0.098
		l0.823-0.822c0.21-0.21,0.061-0.57-0.237-0.57H227.433z M244.661,59.3c-0.099-0.098-0.231-0.154-0.372-0.154h-1.146
		c-0.082,0-0.164-0.019-0.236-0.056l-2.712-1.355c-0.102-0.051-0.185-0.134-0.236-0.235l-0.893-1.787
		c-0.318-0.635-0.967-1.036-1.677-1.036h-1.259c-0.36,0-0.706-0.144-0.96-0.397l-0.938-0.938c-0.099-0.099-0.234-0.154-0.373-0.154
		h-2.544c-0.14,0-0.274-0.056-0.372-0.154l-1.182-1.182c-0.099-0.099-0.232-0.154-0.372-0.154h-2.544
		c-0.14,0-0.274,0.056-0.373,0.154l-0.963,0.964c-0.206,0.205-0.54,0.205-0.745,0l-0.745-0.745c-0.206-0.206-0.539-0.206-0.745,0
		l-0.964,0.963c-0.099,0.099-0.233,0.154-0.372,0.154c-0.47,0-0.704,0.567-0.372,0.899l0.217,0.218c0.207,0.206,0.54,0.206,0.746,0
		l0.745-0.745c0.206-0.206,0.539-0.206,0.745,0l0.963,0.963c0.098,0.1,0.154,0.233,0.154,0.373v1.055
		c0,0.139-0.056,0.272-0.154,0.372l-2.672,2.672c-0.099,0.099-0.154,0.232-0.154,0.372v2.587c0,0.114,0.037,0.225,0.105,0.315
		l4.291,5.722c0.049,0.064,0.112,0.118,0.186,0.154l1.891,0.945c0.599,0.3,0.978,0.913,0.978,1.582v10.218
		c0,0.392,0.155,0.767,0.431,1.042l0.905,0.904c0.098,0.099,0.154,0.233,0.154,0.373v2.228c0,0.343,0.136,0.67,0.377,0.911
		l2.449,2.449c0.099,0.099,0.233,0.154,0.372,0.154h0.745c0.291,0,0.528-0.236,0.528-0.527v-6.598c0-0.199,0.112-0.382,0.291-0.472
		l2.423-1.212c0.13-0.064,0.159-0.238,0.056-0.343l-0.915-0.914c-0.135-0.135-0.04-0.366,0.151-0.366h0.859
		c0.072,0,0.139-0.035,0.179-0.095l2.828-4.243c0.057-0.086,0.088-0.188,0.088-0.292v-0.951c0-0.227,0.145-0.428,0.359-0.498
		l2.623-0.874c0.889-0.298,1.487-1.13,1.487-2.066v-4.173c0-0.141,0.056-0.274,0.155-0.373l1.181-1.182
		c0.099-0.099,0.155-0.232,0.155-0.372v-1.054c0-0.14-0.057-0.273-0.155-0.373L244.661,59.3z M235.887,18.912h1.094
		c0.05,0,0.098,0.011,0.143,0.034l1.699,0.849c0.302,0.151,0.195,0.607-0.143,0.607c-0.086,0-0.167,0.034-0.227,0.094l-1.302,1.302
		c-0.061,0.061-0.094,0.143-0.094,0.228v1.036c0,0.178,0.143,0.32,0.32,0.32h1.037c0.085,0,0.166-0.033,0.227-0.093l1.302-1.303
		c0.06-0.061,0.141-0.095,0.226-0.095h1.226c0.086,0,0.166-0.033,0.227-0.094l0.85-0.849c0.201-0.202,0.06-0.547-0.228-0.547h-0.396
		c-0.178,0-0.32-0.144-0.32-0.32v-0.939c0-0.138-0.088-0.261-0.219-0.304l-4.203-1.4c-0.033-0.012-0.067-0.017-0.102-0.017h-1.117
		c-0.177,0-0.32,0.144-0.32,0.32v0.849C235.567,18.768,235.709,18.912,235.887,18.912 M237.656,15.932h2.307
		c0.049,0,0.098-0.006,0.146-0.018l5.727-1.433c0.106-0.026,0.202-0.08,0.279-0.157l0.74-0.741c0.234-0.233,0.068-0.632-0.26-0.632
		h-5.959c-0.332,0-0.601,0.269-0.601,0.6v0.291c0,0.331-0.267,0.6-0.598,0.6h-1.782c-0.332,0-0.599,0.269-0.599,0.6v0.291
		C237.057,15.663,237.324,15.932,237.656,15.932 M233.207,17.422h0.247c0.344,0,0.622-0.279,0.622-0.622v-0.247
		c0-0.343-0.278-0.621-0.622-0.621h-0.247c-0.342,0-0.621,0.278-0.621,0.621V16.8C232.585,17.143,232.865,17.422,233.207,17.422
		 M221.219,17.699l2.261,1.13c0.105,0.053,0.228,0.062,0.341,0.023l3.989-1.328c0.182-0.062,0.305-0.232,0.305-0.425v-0.549
		c0-0.304-0.298-0.52-0.587-0.424l-3.621,1.207c-0.161,0.054-0.337,0.012-0.458-0.108l-0.978-0.979
		c-0.175-0.174-0.457-0.174-0.632,0l-0.736,0.736C220.888,17.199,220.947,17.563,221.219,17.699"/>
</g>
<polygon fill="#BC406C" points="380.839,151.211 372.253,160.848 391.652,169.505 "/>
<rect x="29.28" y="110.264" fill="#427BBC" width="24.724" height="39.667"/>
<rect x="409.277" y="68.014" fill="#427BBC" width="61.278" height="15.5"/>
<rect x="394.108" y="131.098" fill="#427BBC" width="28.517" height="18.833"/>
<polygon fill="#E9BC3E" points="379.521,207.202 376.658,207.952 376.658,218.445 380.822,218.445 "/>
<polygon fill="#E9BC3E" points="420.289,202.417 423.208,204.556 418.419,210.181 415.267,209.276 "/>
<path fill="#4FAE89" d="M408.685,206.395l-3.186-1.157c0.615,4.614,1.581,8.804,3.186,12.225l-1.019,1.803l-16.584,2.082l1.667,1.75
	l15.75-2.167l1.885-1.262C409.37,214.972,408.599,210.524,408.685,206.395"/>
<path fill="#BC406C" d="M73.793,178.783c0.134,0.719-0.03,1.46-0.28,2.146c-0.351,0.961-0.871,1.86-1.531,2.643
	c-0.481,0.57-1.046,1.086-1.723,1.4c-0.677,0.313-1.477,0.409-2.174,0.144c-0.102-0.039-0.206-0.09-0.265-0.181
	c-0.046-0.073-0.055-0.161-0.064-0.246c-0.184-1.845,0.1-3.733,0.82-5.443"/>
<path fill="#2BA369" d="M60.002,259.892c2.931-11.364,6.533-21.044,10.411-28.754c3.879-7.707,6.15-10.613,6.15-10.613
	c0.437-3.51-0.069-6.74-1.188-9.094l-5.125-6.625c1.711,5.146,3.208,10.334,3.42,15.128l-4.42,6.081
	c-5.627,9.502-10.077,19.994-13.42,31.419C55.83,257.434,57.765,258.853,60.002,259.892"/>
<path fill="#E6AC8F" d="M404.177,186.436c-0.228,0.979-1.074,1.62-1.894,1.431c-0.817-0.19-1.296-1.138-1.069-2.118
	c0.228-0.979,1.074-1.621,1.894-1.431C403.925,184.507,404.405,185.455,404.177,186.436"/>
<path fill="#E6AC8F" d="M71.944,186.131c0.298,0.848-0.109,1.762-0.908,2.041c-0.799,0.28-1.688-0.179-1.985-1.025
	c-0.296-0.848,0.11-1.761,0.909-2.041C70.758,184.825,71.647,185.284,71.944,186.131"/>
<path fill="#642D7C" d="M265.458,176.972c-0.754-0.582-1.615-1.224-2.166-2c-0.918-1.292-0.621-2.994,0.541-3.917
	c1.416-1.125,3.648-0.07,4.084,1.125c0.726-0.928,2.176-0.875,3.146-0.207c0.156,0.107,0.309,0.237,0.497,0.264
	c0.165,0.023,0.329-0.039,0.489-0.089c1.027-0.32,2.174-0.096,3.111,0.433c0.94,0.527,1.781,1.026,2.422,1.892
	c0.502,0.679,0.99,1.531,1.25,2.333c0.689,2.14,0.195,4.059-1.125,5.875c-1.322,1.818-3.769,2.81-5.209,5.25
	c-0.477-1.504-0.697-3.368-0.75-4.854c-0.024-0.717,0.125-2.438,0.291-4.01c0.055-0.503-0.812-0.341-1.365-0.304
	c-0.633,0.042-1.545-0.125-2.133-0.291C267.357,178.138,266.441,177.709,265.458,176.972"/>
<path fill="#E6AC8F" d="M270.125,180.701c0,1.07,0.729,1.937,1.625,1.937c0.897,0,1.625-0.866,1.625-1.937s-0.728-1.937-1.625-1.937
	C270.853,178.765,270.125,179.631,270.125,180.701"/>
<polygon fill="#E6AC8F" points="264,180.139 262.125,183.639 264.312,184.139 "/>
<polygon fill="#E6AC8F" points="236.875,203.951 239,200.763 239.813,201.013 237.937,205.513 "/>
<line fill="#642D7C" x1="258.5" y1="174.826" x2="258.562" y2="174.826"/>
<line fill="#642D7C" x1="257" y1="173.139" x2="257" y2="173.077"/>
<path fill="#642D7C" d="M271.205,178.114c-0.705,1.324-0.748,2.889-0.776,4.389c-0.417,0.009-0.832,0.081-1.228,0.213
	c-0.918-1.986-1.047-4.324-0.354-6.399"/>
<path fill="#63316F" d="M401.14,181.936c-1.047,1.938-1.358,3.172-1.078,5.359c0.375-0.031,0.703-0.093,1.031-0.156
	c0.155-1.241,0.656-3.078,2.156-2.828l0.417-1.089L401.14,181.936z"/>
<line fill="none" stroke="#49A4CC" stroke-width="1.5" stroke-miterlimit="10" x1="120.583" y1="69.264" x2="167.083" y2="69.264"/>
<line fill="none" stroke="#49A4CC" stroke-width="1.5" stroke-miterlimit="10" x1="120.583" y1="76.264" x2="159.833" y2="76.264"/>
<line fill="none" stroke="#49A4CC" stroke-width="1.5" stroke-miterlimit="10" x1="120.583" y1="83.514" x2="149.083" y2="83.514"/>
<line fill="none" stroke="#BC406C" stroke-width="1.5" stroke-miterlimit="10" x1="182" y1="69.264" x2="172.25" y2="69.264"/>
<line fill="none" stroke="#BC406C" stroke-width="1.5" stroke-miterlimit="10" x1="182" y1="76.264" x2="172.25" y2="76.264"/>
<line fill="none" stroke="#BC406C" stroke-width="1.5" stroke-miterlimit="10" x1="182" y1="83.514" x2="172.25" y2="83.514"/>
<line fill="none" stroke="#BC406C" stroke-width="1.5" stroke-miterlimit="10" x1="116.593" y1="69.264" x2="113.343" y2="69.264"/>
<line fill="none" stroke="#BC406C" stroke-width="1.5" stroke-miterlimit="10" x1="116.593" y1="76.264" x2="113.343" y2="76.264"/>
<line fill="none" stroke="#BC406C" stroke-width="1.5" stroke-miterlimit="10" x1="116.593" y1="83.514" x2="113.343" y2="83.514"/>
<rect x="287.47" y="66.431" fill="#D6DEEA" width="64.029" height="18.083"/>
<path fill="#E9BC3E" d="M73.438,217.951c0,0,4.733,0.757,12.522,0.503c-0.132,0.919-0.126,2.006-0.126,2.006
	s-5.556,0.831-12.164-0.526C73.622,219.103,73.438,217.951,73.438,217.951"/>
<path fill="none" stroke="#427BBC" stroke-miterlimit="10" d="M260.396,222.231c-6.711,26.508-11.018,54.452-13.02,83.774"/>
<line fill="none" stroke="#427BBC" stroke-miterlimit="10" x1="274.98" y1="224.205" x2="268.25" y2="224.205"/>
<line fill="none" stroke="#427BBC" stroke-linecap="round" stroke-miterlimit="10" x1="409.851" y1="75.764" x2="351.5" y2="75.764"/>
<line fill="none" stroke="#427BBC" stroke-linecap="round" stroke-miterlimit="10" x1="396.97" y1="141.931" x2="382.741" y2="141.931"/>
<line fill="none" stroke="#427BBC" stroke-linecap="round" stroke-miterlimit="10" x1="54.375" y1="130.097" x2="95.81" y2="130.097"/>
<line fill="none" stroke="#49A4CC" stroke-miterlimit="10" x1="164.792" y1="209.639" x2="202.478" y2="209.639"/>
<polygon fill="#49A4CC" points="198.089,206.389 198.089,213.014 206.907,209.639 "/>
<path fill="none" stroke="#49A4CC" stroke-miterlimit="10" d="M342.136,210.371c-0.186,1.484-0.373,2.977-0.797,4.41
	c-1.074,3.628-3.721,6.761-7.117,8.426"/>
<path fill="none" stroke="#49A4CC" stroke-miterlimit="10" d="M311.226,194.106c-1.334,1.01-2.461,2.292-3.295,3.743"/>
<path fill="none" stroke="#49A4CC" stroke-miterlimit="10" d="M219.553,192.913c-4.479,3.2-7.578,8.268-8.388,13.713"/>
<path fill="none" stroke="#49A4CC" stroke-miterlimit="10" d="M247.126,221.14c-1.75,2.899-4.685,5.059-7.974,5.866"/>
<path fill="none" stroke="#49A4CC" stroke-miterlimit="10" d="M128.3,193.961c-3.793,2.627-6.696,6.517-8.136,10.9"/>
<path fill="none" stroke="#49A4CC" stroke-miterlimit="10" d="M156.462,201.84c-1.195-2.142-2.771-4.07-4.634-5.667"/>
<path fill="none" stroke="#49A4CC" stroke-miterlimit="10" d="M157.516,209.006c0.129,1.647,0.132,3.318-0.201,4.937
	c-0.334,1.618-1.021,3.188-2.143,4.402"/>
<path fill="none" stroke="#49A4CC" stroke-miterlimit="10" d="M126.083,222.557c-0.944-0.94-1.809-1.959-2.581-3.044"/>
<path fill="none" stroke="#BC406C" stroke-linejoin="round" stroke-miterlimit="10" d="M122.505,132.769
	c-3.608,3.808-7.216,7.615-10.824,11.423"/>
<path fill="none" stroke="#BC406C" stroke-linejoin="round" stroke-miterlimit="10" d="M167.917,146.828
	c-5.118-6.606-10.624-12.913-16.478-18.877"/>
<path fill="none" stroke="#BC406C" stroke-linejoin="round" stroke-miterlimit="10" d="M224.884,112.395
	c-1.995,3.16-3.932,6.357-5.81,9.59"/>
<line fill="none" stroke="#BC406C" stroke-linejoin="round" stroke-miterlimit="10" x1="215.896" y1="145.527" x2="206.152" y2="160.781"/>
<path fill="none" stroke="#BC406C" stroke-linejoin="round" stroke-miterlimit="10" d="M286.964,166.158
	c-4.205-7.669-8.9-15.068-14.05-22.14"/>
<path fill="none" stroke="#BC406C" stroke-linejoin="round" stroke-miterlimit="10" d="M345.158,139.66
	c-2.847,4.465-5.632,8.969-8.354,13.511"/>
<path fill="none" stroke="#BC406C" stroke-linejoin="round" stroke-miterlimit="10" d="M344.361,155.63
	c-1.322,2.035-2.682,4.047-4.076,6.033"/>
<polyline fill="none" stroke="#B2C0D6" stroke-miterlimit="10" points="295.806,79.764 303.195,71.431 310.023,79.764 
	322.283,71.431 327.208,79.764 334.234,73.431 338.744,79.764 "/>
<line fill="none" stroke="#DF8830" stroke-linejoin="round" stroke-miterlimit="10" x1="242.009" y1="9.764" x2="241.73" y2="0.015"/>
<path fill="none" stroke="#DF8830" stroke-linejoin="round" stroke-miterlimit="10" d="M209.978,25.538
	c-3.926-3.488-7.852-6.978-11.778-10.468"/>
<path fill="none" stroke="#DF8830" stroke-linejoin="round" stroke-miterlimit="10" d="M208.979,80.49
	c-5.323,4.923-10.502,10-15.528,15.226"/>
<path fill="none" stroke="#DF8830" stroke-linejoin="round" stroke-miterlimit="10" d="M268.798,80.474
	c1.832,2.236,3.787,4.37,5.854,6.389"/>
<line fill="none" stroke="#DF8830" stroke-linejoin="round" stroke-miterlimit="10" x1="281.25" y1="51.264" x2="292" y2="51.264"/>
<path fill="none" stroke="#DF8830" stroke-linejoin="round" stroke-miterlimit="10" d="M200.255,50.334
	c-3.084,0.234-6.169,0.47-9.253,0.706"/>
<path fill="none" stroke="#DF8830" stroke-linejoin="round" stroke-miterlimit="10" d="M248.16,88.787
	c0.612,2.408,1.226,4.817,1.838,7.228"/>
<path fill="none" stroke="#DF8830" stroke-linejoin="round" stroke-miterlimit="10" d="M269.246,22.251
	c3.776-1.311,7.402-3.057,10.783-5.191"/>
<path fill="none" stroke="#BC406C" stroke-linejoin="round" stroke-miterlimit="10" d="M41.643,115.813
	c-2.779-0.047-5.559-0.095-8.337-0.142"/>
<line fill="none" stroke="#77B9D7" stroke-miterlimit="10" x1="33.564" y1="120.866" x2="44.395" y2="121.227"/>
<line fill="none" stroke="#77B9D7" stroke-miterlimit="10" x1="33.522" y1="124.264" x2="41.189" y2="124.264"/>
<line fill="none" stroke="#77B9D7" stroke-miterlimit="10" x1="33.55" y1="127.949" x2="46.385" y2="127.868"/>
<path fill="none" stroke="#77B9D7" stroke-miterlimit="10" d="M33.534,134.566c3.278-0.074,6.557-0.148,9.836-0.223"/>
<line fill="none" stroke="#77B9D7" stroke-miterlimit="10" x1="33.535" y1="138.659" x2="47.116" y2="138.326"/>
<line fill="none" stroke="#77B9D7" stroke-miterlimit="10" x1="33.522" y1="143.302" x2="48.706" y2="143.297"/>
<path fill="#1E4EA6" d="M347.5,75.764c0,2.209,1.791,4,4,4s4-1.791,4-4s-1.791-4-4-4S347.5,73.555,347.5,75.764"/>
<path fill="#1E4EA6" d="M378.667,141.264c0,2.209,1.791,4,4,4s4-1.791,4-4s-1.791-4-4-4S378.667,139.055,378.667,141.264"/>
<path fill="none" stroke="#BC406C" stroke-linejoin="round" stroke-miterlimit="10" d="M454.167,72.312
	c-8.444,0.072-16.891,0.145-25.334,0.217"/>
<line fill="none" stroke="#77B9D7" stroke-linejoin="round" stroke-miterlimit="10" x1="461.083" y1="75.187" x2="418.679" y2="75.685"/>
<line fill="none" stroke="#77B9D7" stroke-linejoin="round" stroke-miterlimit="10" x1="450.167" y1="78.347" x2="431.72" y2="78.721"/>
<path fill="none" stroke="#BC406C" stroke-linejoin="round" stroke-miterlimit="10" d="M413.99,135.173
	c-3.748-0.167-7.502-0.184-11.25-0.052"/>
<path fill="none" stroke="#77B9D7" stroke-linejoin="round" stroke-miterlimit="10" d="M418.351,138.905
	c-6.656-0.444-13.328-0.681-20-0.71"/>
<path fill="none" stroke="#77B9D7" stroke-linejoin="round" stroke-miterlimit="10" d="M414.748,141.389
	c-4.248,0.182-8.507,0.129-12.748-0.158"/>
<path fill="none" stroke="#77B9D7" stroke-linejoin="round" stroke-miterlimit="10" d="M412.322,144.527
	c-2.627,0.161-5.268,0.073-7.877-0.26"/>
<polygon fill="#D6DEEA" points="285.5,274.764 287.5,292.764 306.5,287.764 304.5,269.764 "/>
<path fill="#BC406C" d="M320.5,264.264c0,1.933,1.567,3.5,3.5,3.5c1.934,0,3.5-1.567,3.5-3.5s-1.566-3.5-3.5-3.5
	C322.067,260.764,320.5,262.331,320.5,264.264"/>
<path fill="#49A4CC" d="M78.167,12.597c0,1.934,1.566,3.5,3.5,3.5c1.933,0,3.5-1.566,3.5-3.5c0-1.933-1.567-3.5-3.5-3.5
	C79.733,9.097,78.167,10.664,78.167,12.597"/>
<polygon fill="#D6DEEA" points="70.167,48.097 69.833,65.097 59.833,56.43 "/>
<rect x="66.833" y="83.764" fill="#D6DEEA" width="5.334" height="6.333"/>
<path fill="#E9BC3E" d="M131.5,260.431c0,1.289,1.045,2.333,2.333,2.333c1.289,0,2.334-1.044,2.334-2.333s-1.045-2.333-2.334-2.333
	C132.545,258.098,131.5,259.142,131.5,260.431"/>
<g>
</g>
<g>
</g>
<g>
</g>
<g>
</g>
<g>
</g>
<g>
</g>
</svg>
