<?xml version="1.0" standalone="no"?>
<!DOCTYPE svg PUBLIC "-//W3C//DTD SVG 20010904//EN"
 "http://www.w3.org/TR/2001/REC-SVG-20010904/DTD/svg10.dtd">
<svg version="1.0" xmlns="http://www.w3.org/2000/svg"
 width="1280.000000pt" height="1254.000000pt" viewBox="0 0 1280.000000 1254.000000"
 preserveAspectRatio="xMidYMid meet">
<metadata>
Created by potrace 1.15, written by Peter Selinger 2001-2017
</metadata>
<g transform="translate(0.000000,1254.000000) scale(0.100000,-0.100000)"
fill="#000000" stroke="none">
<path d="M5885 12533 c-616 -28 -1263 -121 -1839 -263 -162 -40 -180 -47 -420
-165 -389 -191 -554 -297 -739 -475 -177 -170 -288 -325 -398 -555 -129 -273
-218 -609 -264 -1007 -13 -107 -15 -346 -15 -1491 l0 -1364 -46 -49 c-44 -48
-45 -50 -41 -105 3 -30 15 -75 27 -99 29 -56 21 -130 -22 -218 -27 -53 -34
-61 -52 -56 -12 4 -241 118 -511 254 -269 136 -548 270 -620 298 -402 157
-656 168 -833 38 -95 -70 -101 -84 -108 -228 -22 -441 184 -710 696 -911 122
-48 248 -88 585 -187 344 -101 564 -187 699 -274 74 -47 76 -48 265 -97 1667
-437 3394 -601 5186 -494 1047 63 2025 191 3145 410 151 30 327 63 390 75 787
145 1331 358 1601 629 146 146 215 295 226 485 4 68 2 115 -6 139 -17 51 -127
149 -215 192 -116 57 -180 68 -341 62 -231 -9 -388 -60 -912 -294 -228 -101
-340 -146 -367 -147 l-40 -1 -48 90 c-49 93 -95 202 -132 315 -20 64 -21 77
-27 1575 -6 1606 -5 1573 -55 1845 -96 529 -312 909 -675 1190 -206 159 -495
310 -744 388 -1079 341 -2093 507 -3045 500 -135 -1 -272 -3 -305 -5z"/>
<path d="M7765 2746 c-232 -44 -425 -128 -627 -273 -78 -55 -250 -218 -368
-346 l-53 -59 -116 115 c-229 226 -408 352 -633 445 -198 82 -341 107 -618
106 -168 0 -227 -4 -325 -23 -217 -40 -464 -136 -710 -276 -155 -88 -231 -139
-450 -305 -302 -228 -521 -367 -777 -489 -457 -220 -823 -272 -1120 -161 -117
43 -321 217 -367 312 -52 107 2 297 97 345 30 14 61 18 157 18 129 0 149 -5
315 -72 140 -57 199 -48 258 38 34 49 27 118 -18 185 -76 110 -260 260 -385
314 -137 59 -327 77 -464 44 -96 -23 -254 -102 -347 -172 -141 -107 -338 -333
-402 -462 -27 -54 -27 -58 -26 -240 1 -209 18 -317 78 -485 149 -416 601 -815
1181 -1043 404 -158 713 -217 1275 -243 277 -13 855 -7 1075 11 616 50 1385
326 1764 633 113 91 402 383 449 454 23 33 54 71 68 82 37 29 45 23 182 -140
141 -167 202 -230 322 -331 408 -342 977 -573 1660 -672 437 -64 1005 -72
1510 -21 856 87 1409 313 1855 760 282 282 423 581 442 940 11 208 -24 308
-172 483 -167 199 -397 379 -548 428 -72 24 -98 28 -217 28 -161 1 -242 -18
-383 -91 -137 -71 -286 -197 -330 -278 -27 -51 -29 -155 -5 -201 37 -69 104
-69 316 0 210 68 362 78 432 28 68 -49 107 -208 77 -313 -43 -144 -257 -315
-464 -370 -112 -30 -328 -30 -473 0 -268 56 -542 168 -800 329 -188 117 -455
300 -625 427 -232 173 -392 267 -657 384 -287 127 -436 160 -753 166 -150 3
-230 1 -280 -9z"/>
</g>
</svg>
